<svg width="16" height="10" viewBox="0 0 16 10" fill="none" xmlns="http://www.w3.org/2000/svg">
<path d="M14.1219 3.42605L11.7581 0.531479C11.7013 0.462092 11.6337 0.407018 11.5593 0.369434C11.4849 0.33185 11.405 0.3125 11.3244 0.3125C11.2438 0.3125 11.1639 0.33185 11.0895 0.369434C11.0151 0.407018 10.9475 0.462092 10.8907 0.531479C10.777 0.670183 10.7131 0.857813 10.7131 1.05339C10.7131 1.24897 10.777 1.4366 10.8907 1.5753L13.0652 4.23297H0.61081C0.448813 4.23297 0.293452 4.31097 0.178903 4.4498C0.0643539 4.58863 -9.53674e-07 4.77693 -9.53674e-07 4.97327C-9.53674e-07 5.16961 0.0643539 5.35791 0.178903 5.49674C0.293452 5.63557 0.448813 5.71357 0.61081 5.71357H13.1019L10.8907 8.38605C10.8335 8.45487 10.788 8.53675 10.757 8.62696C10.726 8.71717 10.7101 8.81393 10.7101 8.91166C10.7101 9.00939 10.726 9.10615 10.757 9.19636C10.788 9.28657 10.8335 9.36845 10.8907 9.43727C10.9475 9.50666 11.0151 9.56173 11.0895 9.59932C11.1639 9.6369 11.2438 9.65625 11.3244 9.65625C11.405 9.65625 11.4849 9.6369 11.5593 9.59932C11.6337 9.56173 11.7013 9.50666 11.7581 9.43727L14.1219 6.56491C14.4651 6.14849 15.1875 5.30932 15.1875 5.07738C15.1875 4.84543 14.4651 3.84247 14.1219 3.42605Z" fill="#3D2300"/>
</svg>
