<svg width="25" height="30" viewBox="0 0 25 30" fill="none" xmlns="http://www.w3.org/2000/svg">
<path d="M5.75 15H12V17.5H5.75V15ZM18.25 10H5.75V12.5H18.25V10ZM18.25 5H5.75V7.5H18.25V5ZM22 24.305V30L19.5 27.5L17 30V24.305C16.0467 23.7573 15.3012 22.9097 14.8798 21.8942C14.4583 20.8787 14.3845 19.7524 14.6697 18.6906C14.955 17.6288 15.5834 16.6911 16.4571 16.0236C17.3307 15.3561 18.4005 14.9962 19.5 15C19.9226 15.0053 20.3427 15.0649 20.75 15.1775V3.75C20.75 3.41848 20.6183 3.10054 20.3839 2.86612C20.1495 2.6317 19.8315 2.5 19.5 2.5H4.5C4.16848 2.5 3.85054 2.6317 3.61612 2.86612C3.3817 3.10054 3.25 3.41848 3.25 3.75V25H14.5V27.5H0.75V3.75C0.75 2.75544 1.14509 1.80161 1.84835 1.09835C2.55161 0.395088 3.50544 0 4.5 0L19.5 0C20.4946 0 21.4484 0.395088 22.1517 1.09835C22.8549 1.80161 23.25 2.75544 23.25 3.75V16.7275C23.7396 17.2774 24.1001 17.9298 24.305 18.637C24.5099 19.3442 24.5541 20.0882 24.4342 20.8147C24.3144 21.5412 24.0336 22.2316 23.6124 22.8355C23.1912 23.4395 22.6403 23.9415 22 24.305ZM22 20C22 19.5055 21.8534 19.0222 21.5787 18.6111C21.304 18.2 20.9135 17.8795 20.4567 17.6903C19.9999 17.5011 19.4972 17.4516 19.0123 17.548C18.5273 17.6445 18.0819 17.8826 17.7322 18.2322C17.3826 18.5819 17.1445 19.0273 17.048 19.5123C16.9516 19.9972 17.0011 20.4999 17.1903 20.9567C17.3795 21.4135 17.7 21.804 18.1111 22.0787C18.5222 22.3534 19.0055 22.5 19.5 22.5C20.163 22.5 20.7989 22.2366 21.2678 21.7678C21.7366 21.2989 22 20.663 22 20Z" fill="#3D2300"/>
</svg>
