<svg width="30" height="22" viewBox="0 0 30 22" fill="none" xmlns="http://www.w3.org/2000/svg">
<path d="M6.87272 1.03905C6.5153 1.25585 6.40983 1.67187 6.62077 2.01757C6.85514 2.41015 6.42155 2.38671 13.4704 2.38671H19.863L19.8747 5.73827L19.8923 9.09569L20.0329 9.29491C20.1091 9.40038 20.279 9.54101 20.4137 9.5996C20.6364 9.69921 20.8591 9.71093 23.7184 9.71093H26.7887L27.6618 10.5078L28.5348 11.2988V14.2578V17.2168L27.738 17.1992L26.9411 17.1816L26.8122 16.8242C26.3024 15.4121 24.7438 14.5332 23.2907 14.8262C23.0329 14.8789 22.6579 15.0078 22.4587 15.1016C21.7614 15.4473 21.0993 16.2031 20.8766 16.9004L20.777 17.2109L18.3219 17.1992L15.8669 17.1816L15.7262 16.8066C15.193 15.3945 13.6637 14.5332 12.2165 14.8262C11.9587 14.8789 11.5837 15.0078 11.3844 15.1016C10.6872 15.4473 10.0251 16.2031 9.80241 16.8945L9.7028 17.2109H8.42546C6.98991 17.2109 6.81999 17.2461 6.62077 17.5742C6.46842 17.8262 6.47428 18.084 6.63835 18.3301C6.861 18.6582 6.93132 18.6758 8.3903 18.6758H9.71452L9.79069 18.8926C10.1247 19.9414 10.9919 20.7324 12.0876 20.9902C13.3415 21.2891 14.6774 20.7558 15.404 19.666C15.5329 19.4726 15.6852 19.168 15.7438 18.9922L15.8434 18.6758H18.3102H20.7829L20.9059 19.0098C21.4333 20.4512 22.9333 21.2949 24.4684 21.0137C25.3825 20.8496 26.2731 20.1641 26.6774 19.3144C26.8005 19.0683 26.8942 18.8223 26.8942 18.7695C26.8942 18.6875 27.0173 18.6758 28.0837 18.6758C29.1969 18.6758 29.279 18.6641 29.5016 18.541C29.654 18.459 29.7829 18.3242 29.8708 18.1484L29.9997 17.8906V14.3808C29.9997 11.0586 29.9938 10.8652 29.8883 10.6601C29.8239 10.5371 29.3434 10.0391 28.7751 9.51171C28.2184 9.00194 27.7321 8.52733 27.6852 8.45702C27.6442 8.39257 27.2751 7.42577 26.8649 6.31835C26.4606 5.21093 26.0563 4.16796 25.9743 4.0039C25.7575 3.57616 25.1833 3.03124 24.7262 2.80858C24.1872 2.55663 23.8063 2.5039 22.488 2.5039H21.3278V2.15819C21.3278 1.74218 21.2458 1.47265 21.0407 1.24999C20.7243 0.904288 21.0993 0.921866 13.7868 0.921866C7.21842 0.921866 7.05436 0.927725 6.87272 1.03905ZM23.9235 4.05077C24.2399 4.16796 24.5329 4.41405 24.6676 4.67187C24.7614 4.85937 26.0153 8.16405 26.0153 8.22851C26.0153 8.24022 24.9606 8.24608 23.6716 8.24608H21.3278V6.10741V3.96874H22.5173C23.3493 3.9746 23.7653 3.99804 23.9235 4.05077ZM13.5055 16.3965C13.652 16.4668 13.8864 16.6484 14.027 16.8066C14.9645 17.8496 14.3141 19.4844 12.9137 19.6016C11.7653 19.6894 10.8395 18.582 11.1559 17.4922C11.4548 16.4609 12.5505 15.9512 13.5055 16.3965ZM24.5739 16.3965C24.7204 16.4609 24.9548 16.6426 25.0954 16.7949C26.0387 17.8027 25.4059 19.4726 24.0231 19.5957C22.904 19.7012 21.9782 18.6816 22.2067 17.6035C22.4294 16.5254 23.5895 15.9336 24.5739 16.3965Z" fill="#72614A"/>
<path d="M3.71442 5.13475C3.48591 5.27538 3.37458 5.54491 3.4156 5.8496C3.45075 6.12499 3.58552 6.29491 3.84919 6.40624C4.1363 6.52928 12.3922 6.52342 12.6851 6.40624C13.066 6.24217 13.2359 5.73241 13.0308 5.37499C12.8082 5.00585 13.0425 5.02342 8.24958 5.02342C4.09528 5.02342 3.89021 5.02928 3.71442 5.13475Z" fill="#72614A"/>
<path d="M0.345462 9.20117C-0.123288 9.51172 -0.117428 10.0859 0.345462 10.3965L0.544681 10.5312L6.62671 10.5195L12.7146 10.502L12.8962 10.3203C13.031 10.1855 13.0837 10.0684 13.1072 9.88086C13.1365 9.57031 13.0427 9.37695 12.7791 9.20117L12.5798 9.06641H6.56226H0.544681L0.345462 9.20117Z" fill="#72614A"/>
<path d="M2.47818 13.1738C2.06216 13.2969 1.8688 13.8125 2.07974 14.2227C2.26138 14.5742 2.24966 14.5742 5.2438 14.5742C8.2438 14.5742 8.18521 14.5801 8.402 14.2227C8.61294 13.8535 8.42544 13.3203 8.027 13.1855C7.77505 13.1035 2.77115 13.0918 2.47818 13.1738Z" fill="#72614A"/>
</svg>
