<svg width="16" height="10" viewBox="0 0 16 10" fill="none" xmlns="http://www.w3.org/2000/svg">
<path d="M1.87809 3.42605L4.24192 0.531479C4.2987 0.462092 4.36626 0.407018 4.44069 0.369434C4.51512 0.33185 4.59496 0.3125 4.67559 0.3125C4.75623 0.3125 4.83606 0.33185 4.9105 0.369434C4.98493 0.407018 5.05248 0.462092 5.10927 0.531479C5.22303 0.670183 5.28689 0.857813 5.28689 1.05339C5.28689 1.24897 5.22303 1.4366 5.10927 1.5753L2.93479 4.23297H15.3892C15.5512 4.23297 15.7065 4.31097 15.8211 4.4498C15.9356 4.58863 16 4.77693 16 4.97327C16 5.16961 15.9356 5.35791 15.8211 5.49674C15.7065 5.63557 15.5512 5.71357 15.3892 5.71357H2.89814L5.10927 8.38605C5.16652 8.45487 5.21196 8.53675 5.24297 8.62696C5.27398 8.71717 5.28994 8.81393 5.28994 8.91166C5.28994 9.00939 5.27398 9.10615 5.24297 9.19636C5.21196 9.28657 5.16652 9.36845 5.10927 9.43727C5.05248 9.50666 4.98493 9.56173 4.9105 9.59932C4.83606 9.6369 4.75623 9.65625 4.67559 9.65625C4.59496 9.65625 4.51512 9.6369 4.44069 9.59932C4.36626 9.56173 4.2987 9.50666 4.24192 9.43727L1.87809 6.56491C1.53493 6.14849 0.8125 5.30932 0.8125 5.07738C0.8125 4.84543 1.53493 3.84247 1.87809 3.42605Z" fill="#D3D0CB"/>
</svg>
