<svg width="24" height="30" viewBox="0 0 24 30" fill="none" xmlns="http://www.w3.org/2000/svg">
<path d="M10.75 15H18.25V17.5H10.75V15ZM23.25 2.5V26.25C23.25 28.3175 21.5675 30 19.5 30H4.5C2.4325 30 0.75 28.3175 0.75 26.25V2.5H7.21375C7.73 1.045 9.12 0 10.75 0H13.25C14.88 0 16.27 1.045 16.7863 2.5H23.25ZM20.75 5H14.5V3.75C14.5 3.06 13.9388 2.5 13.25 2.5H10.75C10.0612 2.5 9.5 3.06 9.5 3.75V5H3.25V26.25C3.25 26.94 3.81125 27.5 4.5 27.5H19.5C20.1887 27.5 20.75 26.94 20.75 26.25V5ZM10.75 12.5H18.25V10H10.75V12.5ZM10.75 22.5H18.25V20H10.75V22.5ZM5.75 12.5H8.25V10H5.75V12.5ZM5.75 17.5H8.25V15H5.75V17.5ZM5.75 22.5H8.25V20H5.75V22.5Z" fill="#3D2300"/>
</svg>
