<svg width="16" height="15" viewBox="0 0 16 15" fill="none" xmlns="http://www.w3.org/2000/svg">
<path d="M12.6667 0.166748H3.33333C2.4496 0.167807 1.60237 0.519336 0.97748 1.14423C0.352588 1.76912 0.00105857 2.61635 0 3.50008L0 11.5001C0.00105857 12.3838 0.352588 13.231 0.97748 13.8559C1.60237 14.4808 2.4496 14.8324 3.33333 14.8334H12.6667C13.5504 14.8324 14.3976 14.4808 15.0225 13.8559C15.6474 13.231 15.9989 12.3838 16 11.5001V3.50008C15.9989 2.61635 15.6474 1.76912 15.0225 1.14423C14.3976 0.519336 13.5504 0.167807 12.6667 0.166748ZM3.33333 1.50008H12.6667C13.0659 1.50087 13.4557 1.62109 13.786 1.84528C14.1163 2.06948 14.3719 2.38738 14.52 2.75808L9.41467 7.86408C9.03895 8.23829 8.53028 8.44839 8 8.44839C7.46972 8.44839 6.96105 8.23829 6.58533 7.86408L1.48 2.75808C1.6281 2.38738 1.88374 2.06948 2.21403 1.84528C2.54432 1.62109 2.93414 1.50087 3.33333 1.50008ZM12.6667 13.5001H3.33333C2.8029 13.5001 2.29419 13.2894 1.91912 12.9143C1.54405 12.5392 1.33333 12.0305 1.33333 11.5001V4.50008L5.64267 8.80675C6.26842 9.43092 7.11617 9.78144 8 9.78144C8.88383 9.78144 9.73158 9.43092 10.3573 8.80675L14.6667 4.50008V11.5001C14.6667 12.0305 14.456 12.5392 14.0809 12.9143C13.7058 13.2894 13.1971 13.5001 12.6667 13.5001Z" fill="#3D2300"/>
</svg>
