<svg width="14" height="16" viewBox="0 0 14 16" fill="none" xmlns="http://www.w3.org/2000/svg">
<path d="M6.9718 16.0053L6.50709 15.6069C5.86643 15.0705 0.272461 10.2393 0.272461 6.70545C0.272461 3.00551 3.27187 0.00610352 6.9718 0.00610352C10.6717 0.00610352 13.6711 3.00551 13.6711 6.70545C13.6711 10.2394 8.07718 15.0705 7.43918 15.6096L6.9718 16.0053ZM6.9718 1.4547C4.07327 1.45798 1.72437 3.80689 1.72109 6.70542C1.72109 8.92548 5.16271 12.472 6.9718 14.0952C8.78093 12.4713 12.2225 8.92279 12.2225 6.70542C12.2192 3.80689 9.87037 1.45801 6.9718 1.4547Z" fill="#E3E1DE"/>
<path d="M6.97197 9.36093C5.50534 9.36093 4.31641 8.17199 4.31641 6.70537C4.31641 5.23874 5.50534 4.0498 6.97197 4.0498C8.43859 4.0498 9.62753 5.23874 9.62753 6.70537C9.62753 8.17199 8.43862 9.36093 6.97197 9.36093ZM6.97197 5.37755C6.23866 5.37755 5.64419 5.97202 5.64419 6.70534C5.64419 7.43865 6.23866 8.03312 6.97197 8.03312C7.70528 8.03312 8.29975 7.43865 8.29975 6.70534C8.29975 5.97202 7.70531 5.37755 6.97197 5.37755Z" fill="#E3E1DE"/>
</svg>
