<svg width="26" height="22" viewBox="0 0 26 22" fill="none" xmlns="http://www.w3.org/2000/svg">
<g clip-path="url(#clip0_187_1902)">
<path d="M24.6667 20.1667H1.33333C1.11232 20.1667 0.900358 20.0789 0.744078 19.9226C0.587797 19.7663 0.5 19.5543 0.5 19.3333C0.5 19.1123 0.587797 18.9004 0.744078 18.7441C0.900358 18.5878 1.11232 18.5 1.33333 18.5H24.6667C24.8877 18.5 25.0996 18.5878 25.2559 18.7441C25.4122 18.9004 25.5 19.1123 25.5 19.3333C25.5 19.5543 25.4122 19.7663 25.2559 19.9226C25.0996 20.0789 24.8877 20.1667 24.6667 20.1667Z" fill="#E3E1DE"/>
<path d="M24.6667 11.8334H1.33333C1.11232 11.8334 0.900358 11.7456 0.744078 11.5893C0.587797 11.4331 0.5 11.2211 0.5 11.0001C0.5 10.7791 0.587797 10.5671 0.744078 10.4108C0.900358 10.2545 1.11232 10.1667 1.33333 10.1667H24.6667C24.8877 10.1667 25.0996 10.2545 25.2559 10.4108C25.4122 10.5671 25.5 10.7791 25.5 11.0001C25.5 11.2211 25.4122 11.4331 25.2559 11.5893C25.0996 11.7456 24.8877 11.8334 24.6667 11.8334Z" fill="#E3E1DE"/>
<path d="M24.6667 3.49992H1.33333C1.11232 3.49992 0.900358 3.41212 0.744078 3.25584C0.587797 3.09956 0.5 2.8876 0.5 2.66659C0.5 2.44557 0.587797 2.23361 0.744078 2.07733C0.900358 1.92105 1.11232 1.83325 1.33333 1.83325H24.6667C24.8877 1.83325 25.0996 1.92105 25.2559 2.07733C25.4122 2.23361 25.5 2.44557 25.5 2.66659C25.5 2.8876 25.4122 3.09956 25.2559 3.25584C25.0996 3.41212 24.8877 3.49992 24.6667 3.49992Z" fill="#E3E1DE"/>
</g>
<defs>
<clipPath id="clip0_187_1902">
<rect width="26" height="22" fill="white"/>
</clipPath>
</defs>
</svg>
