<svg width="18" height="18" viewBox="0 0 18 18" fill="none" xmlns="http://www.w3.org/2000/svg">
<path d="M17.25 8.2501C17.0511 8.2501 16.8603 8.17108 16.7196 8.03043C16.579 7.88978 16.5 7.69901 16.5 7.5001C16.4984 5.90929 15.8657 4.38409 14.7409 3.25921C13.616 2.13434 12.0908 1.50169 10.5 1.5001C10.3011 1.5001 10.1103 1.42108 9.96965 1.28043C9.829 1.13978 9.74998 0.949011 9.74998 0.750099C9.74998 0.551187 9.829 0.360421 9.96965 0.219769C10.1103 0.0791167 10.3011 9.90459e-05 10.5 9.90459e-05C12.4884 0.00228274 14.3948 0.79316 15.8009 2.19921C17.2069 3.60526 17.9978 5.51165 18 7.5001C18 7.69901 17.921 7.88978 17.7803 8.03043C17.6397 8.17108 17.4489 8.2501 17.25 8.2501ZM15 7.5001C15 6.30662 14.5259 5.16203 13.682 4.31812C12.838 3.4742 11.6935 3.0001 10.5 3.0001C10.3011 3.0001 10.1103 3.07912 9.96965 3.21977C9.829 3.36042 9.74998 3.55119 9.74998 3.7501C9.74998 3.94901 9.829 4.13978 9.96965 4.28043C10.1103 4.42108 10.3011 4.5001 10.5 4.5001C11.2956 4.5001 12.0587 4.81617 12.6213 5.37878C13.1839 5.94139 13.5 6.70445 13.5 7.5001C13.5 7.69901 13.579 7.88978 13.7196 8.03043C13.8603 8.17108 14.0511 8.2501 14.25 8.2501C14.4489 8.2501 14.6397 8.17108 14.7803 8.03043C14.921 7.88978 15 7.69901 15 7.5001ZM16.6372 16.6231L17.3197 15.8363C17.7541 15.4005 17.9981 14.8103 17.9981 14.195C17.9981 13.5796 17.7541 12.9894 17.3197 12.5536C17.2965 12.5304 15.492 11.1421 15.492 11.1421C15.0589 10.7298 14.4836 10.5003 13.8857 10.5011C13.2878 10.502 12.7132 10.7331 12.2812 11.1466L10.8517 12.3511C9.68486 11.8682 8.62489 11.1595 7.73269 10.2657C6.84049 9.37199 6.13364 8.3108 5.65273 7.1431L6.85273 5.7181C7.26651 5.28623 7.49795 4.71151 7.49893 4.1134C7.49991 3.5153 7.27035 2.93982 6.85798 2.5066C6.85798 2.5066 5.46823 0.704349 5.44498 0.681099C5.01707 0.25041 4.43689 0.00536556 3.8298 -0.00108987C3.22271 -0.00754529 2.63745 0.225107 2.20048 0.646599L1.33798 1.3966C-3.75752 7.3081 7.21498 18.1959 13.3215 18.0001C13.9381 18.0037 14.5492 17.8837 15.1187 17.6472C15.6882 17.4107 16.2045 17.0625 16.6372 16.6231Z" fill="#E3E1DE"/>
</svg>
