<svg width="22" height="23" viewBox="0 0 22 23" fill="none" xmlns="http://www.w3.org/2000/svg">
<path d="M21.0831 10.5832C20.84 10.5832 20.6068 10.4867 20.4349 10.3148C20.263 10.1428 20.1665 9.90969 20.1665 9.66657C20.1645 7.72225 19.3913 5.85811 18.0164 4.48326C16.6416 3.10842 14.7774 2.33518 12.8331 2.33324C12.59 2.33324 12.3568 2.23666 12.1849 2.06475C12.013 1.89284 11.9165 1.65969 11.9165 1.41657C11.9165 1.17346 12.013 0.940298 12.1849 0.76839C12.3568 0.596481 12.59 0.499904 12.8331 0.499904C15.2634 0.502573 17.5935 1.4692 19.312 3.18771C21.0305 4.90621 21.9971 7.23624 21.9998 9.66657C21.9998 9.90969 21.9032 10.1428 21.7313 10.3148C21.5594 10.4867 21.3262 10.5832 21.0831 10.5832ZM18.3331 9.66657C18.3331 8.20788 17.7537 6.80893 16.7222 5.77748C15.6908 4.74603 14.2918 4.16657 12.8331 4.16657C12.59 4.16657 12.3568 4.26315 12.1849 4.43506C12.013 4.60696 11.9165 4.84012 11.9165 5.08324C11.9165 5.32635 12.013 5.55951 12.1849 5.73142C12.3568 5.90333 12.59 5.9999 12.8331 5.9999C13.8056 5.9999 14.7382 6.38621 15.4258 7.07385C16.1135 7.76148 16.4998 8.69411 16.4998 9.66657C16.4998 9.90969 16.5964 10.1428 16.7683 10.3148C16.9402 10.4867 17.1733 10.5832 17.4165 10.5832C17.6596 10.5832 17.8927 10.4867 18.0646 10.3148C18.2365 10.1428 18.3331 9.90969 18.3331 9.66657ZM20.3342 20.8169L21.1684 19.8553C21.6993 19.3227 21.9974 18.6013 21.9974 17.8492C21.9974 17.0971 21.6993 16.3757 21.1684 15.8431C21.14 15.8147 18.9345 14.1179 18.9345 14.1179C18.4051 13.614 17.702 13.3335 16.9712 13.3345C16.2404 13.3355 15.5381 13.6181 15.0102 14.1234L13.263 15.5956C11.8369 15.0053 10.5413 14.1391 9.45088 13.0468C8.36041 11.9544 7.49648 10.6574 6.9087 9.23024L8.37537 7.48857C8.88111 6.96073 9.16397 6.25829 9.16517 5.52727C9.16636 4.79626 8.88579 4.0929 8.38178 3.5634C8.38178 3.5634 6.6832 1.36065 6.65478 1.33224C6.13178 0.80584 5.42267 0.506341 4.68067 0.498451C3.93868 0.490561 3.22336 0.774914 2.68928 1.29007L1.63512 2.20674C-4.59272 9.4319 8.81812 22.7392 16.2816 22.4999C17.0353 22.5043 17.7822 22.3576 18.4782 22.0685C19.1743 21.7795 19.8054 21.3539 20.3342 20.8169Z" fill="#3D2300"/>
</svg>
