<svg width="28" height="30" viewBox="0 0 28 30" fill="none" xmlns="http://www.w3.org/2000/svg">
<path d="M2.75 0.0820351C1.90039 0.322269 1.23828 0.949223 0.992188 1.73438C0.875 2.1211 0.875 2.22656 0.875 15C0.875 27.7441 0.875 27.8848 0.992188 28.2598C1.25 29.0859 1.98828 29.748 2.86719 29.9355C3.10742 29.9883 5.02344 30 10.3965 29.9883L17.6035 29.9707L17.9434 29.8301C18.5996 29.5664 19.1621 28.9863 19.4023 28.3184C19.5723 27.8555 19.6309 26.2793 19.4902 25.9395C19.291 25.4648 18.6816 25.3477 18.3125 25.7168L18.1309 25.8984L18.1016 26.8535C18.0723 27.7852 18.0664 27.8203 17.9082 28.0605C17.8027 28.2187 17.6504 28.3535 17.498 28.4238C17.2578 28.5293 17 28.5352 10.209 28.5352C5.375 28.5352 3.11328 28.5176 3.00195 28.4707C2.91406 28.4414 2.76172 28.3418 2.67383 28.2539C2.31641 27.9141 2.33984 28.9336 2.33984 15C2.33984 1.06641 2.31641 2.08594 2.67383 1.7461C2.93164 1.5 3.10742 1.46485 4.10352 1.46485H5.04102L5.11719 1.65235C5.1582 1.75782 5.30469 2.15625 5.44531 2.53711C5.65039 3.11133 5.74414 3.28125 5.98438 3.54493C6.1543 3.73243 6.40625 3.93164 6.60547 4.02539L6.93945 4.18946L10.0684 4.20704C12.793 4.21875 13.2324 4.21289 13.5137 4.13086C13.9121 4.01368 14.2109 3.83204 14.457 3.55079C14.7031 3.26954 14.8145 3.04688 15.1191 2.17969L15.3711 1.46485H16.3145C17.4219 1.46485 17.6387 1.5293 17.9082 1.93946L18.0723 2.19141L18.0898 4.37696C18.1016 5.57813 18.0898 6.5625 18.0664 6.5625C18.0488 6.5625 17.8906 6.4336 17.7148 6.27539C17.2871 5.88281 16.8652 5.72461 16.2559 5.72461C15.6641 5.72461 15.2305 5.88281 14.7734 6.26953C14.5918 6.42188 13.209 7.78711 11.7031 9.29297C9.16016 11.8477 8.95508 12.0703 8.77344 12.4512C8.59766 12.8262 8.58008 12.9082 8.58008 13.418C8.58008 14.4199 8.27539 14.0566 13.6016 19.3711C17.9844 23.748 18.2656 24.0176 18.582 24.1289C19.0508 24.3047 19.4316 24.3398 19.8359 24.2578C20.5508 24.1113 20.5742 24.0937 23.7617 20.9004C27.2305 17.4258 27.0957 17.6016 27.0957 16.6113C27.0957 15.5918 27.3184 15.8613 23.1699 11.7188L19.5664 8.11524V5.22657C19.5664 2.79493 19.5488 2.27344 19.4727 1.92774C19.3027 1.17774 18.6875 0.462894 17.9434 0.169926L17.6035 0.0293007L10.3086 0.0175819C4.58398 0.0117226 2.95508 0.0234413 2.75 0.0820351ZM13.6719 1.88672C13.4668 2.44922 13.3789 2.61914 13.2441 2.69532C13.168 2.73047 12.0957 2.75391 10.2031 2.75391C6.79883 2.75391 7.08594 2.8125 6.82812 2.08008C6.74023 1.83399 6.65234 1.59375 6.63477 1.54688C6.61133 1.47657 7.08594 1.46485 10.2148 1.46485H13.8242L13.6719 1.88672ZM16.5371 7.23047C16.6426 7.27735 18.5996 9.1875 21.1719 11.7656L25.6191 16.2188L25.6484 16.5527L25.6777 16.8867L22.7539 19.8105C20.6504 21.9141 19.7773 22.752 19.6309 22.7988C19.2031 22.9453 19.3203 23.0449 14.5449 18.2695C11.4629 15.1816 10.0684 13.7461 10.0391 13.6348C9.92773 13.1719 9.86328 13.248 12.9277 10.1777C14.5039 8.60156 15.8691 7.27735 15.9629 7.23047C16.1914 7.13086 16.3027 7.13086 16.5371 7.23047Z" fill="#3D2300"/>
<path d="M15.7108 8.08591C15.6054 8.15037 15.4765 8.29685 15.4237 8.40818C15.33 8.6074 15.3417 8.69529 15.8339 11.8301C16.3964 15.4336 16.4081 15.4746 16.9413 15.9726C17.4452 16.4414 17.5273 16.4648 21.037 17.0215C24.078 17.5019 24.248 17.5254 24.4472 17.4375C25.121 17.1562 24.9921 16.2246 24.2597 16.0605C24.1132 16.0254 22.7128 15.7969 21.1484 15.5566C19.5839 15.3105 18.2245 15.0761 18.1191 15.0293C18.0136 14.9824 17.8905 14.8828 17.8437 14.8125C17.7909 14.7304 17.5683 13.4765 17.2812 11.6308C17.0233 9.95505 16.7714 8.49607 16.7245 8.3906C16.6191 8.16794 16.3261 7.96873 16.08 7.96873C15.9862 7.96873 15.8163 8.02146 15.7108 8.08591Z" fill="#3D2300"/>
<path d="M12.6524 12.5156C11.961 12.5625 11.334 12.6094 11.2578 12.627C11.1875 12.6446 11.0469 12.7324 10.9473 12.8203C10.8067 12.9434 10.7598 13.043 10.7422 13.2422C10.7071 13.5645 10.795 13.7461 11.0703 13.9336C11.2696 14.0684 11.2989 14.0684 12.0371 14.0332C12.459 14.0098 13.2442 13.9571 13.7891 13.9219L14.7793 13.8516L14.9727 13.6348C15.2012 13.3887 15.2364 13.0723 15.084 12.7735C14.8907 12.3926 14.7793 12.3809 12.6524 12.5156Z" fill="#3D2300"/>
<path d="M19.3494 17.7539C18.9861 17.9707 18.9802 18.0117 18.8748 19.8047C18.781 21.3691 18.781 21.457 18.8806 21.6386C19.1443 22.1308 19.8181 22.1601 20.1228 21.6972C20.2107 21.5625 20.2459 21.2695 20.3338 19.9218C20.4275 18.3867 20.4275 18.2988 20.3279 18.0703C20.158 17.6777 19.7127 17.5312 19.3494 17.7539Z" fill="#3D2300"/>
<path d="M5.4745 15.3691C5.11708 15.7266 5.1581 16.1719 5.57997 16.4883C5.73818 16.6055 5.82021 16.6113 6.86903 16.6113C8.14638 16.6113 8.28114 16.5762 8.46278 16.1953C8.60927 15.8906 8.55068 15.6035 8.287 15.3633L8.08193 15.1758H6.87489H5.66786L5.4745 15.3691Z" fill="#3D2300"/>
<path d="M5.19933 18.4336C4.85949 18.6152 4.74816 19.1777 4.98839 19.4824C5.23449 19.7988 5.2755 19.8047 8.11144 19.8047C10.8829 19.8047 10.965 19.7988 11.2052 19.5234C11.3693 19.3477 11.4044 18.9492 11.2814 18.7207C11.0704 18.3281 11.1466 18.3398 8.09972 18.3398C5.79113 18.3457 5.3341 18.3574 5.19933 18.4336Z" fill="#3D2300"/>
<path d="M8.24626 25.9922C7.91228 26.168 7.79509 26.7363 8.02947 27.0352C8.28142 27.3516 8.34587 27.3633 10.1916 27.3633C12.0842 27.3633 12.2072 27.3457 12.4181 27C12.5705 26.748 12.5646 26.4902 12.4006 26.2441C12.172 25.9043 12.1486 25.8984 10.1916 25.9043C8.72673 25.9043 8.37517 25.916 8.24626 25.9922Z" fill="#3D2300"/>
</svg>
