<svg width="30" height="24" viewBox="0 0 30 24" fill="none" xmlns="http://www.w3.org/2000/svg">
<path d="M17.3313 0.657646C15.7162 0.852968 13.3573 1.6568 13.1244 2.0775C12.9967 2.32541 13.0417 2.61088 13.2371 2.79869C13.4624 3.03157 13.7104 3.03157 14.1611 2.8062C15.01 2.37799 16.3998 1.98735 17.4666 1.87466L18.0075 1.81456V2.51322C18.0075 3.15929 18.0225 3.23441 18.1953 3.39968C18.308 3.51988 18.4657 3.58749 18.6085 3.58749C18.7512 3.58749 18.909 3.51988 19.0216 3.39968C19.1944 3.23441 19.2095 3.15929 19.2095 2.51322V1.81456L19.7579 1.87466C20.8622 1.98735 22.1994 2.37799 23.1535 2.85128C23.7244 3.14426 24.7236 3.79033 25.0917 4.11337L25.3772 4.36127L24.8813 4.86461C24.3179 5.45058 24.2503 5.706 24.5808 6.02904C24.9039 6.35958 25.1593 6.29197 25.7453 5.72103L26.2561 5.23272L26.5416 5.57829C27.6309 6.87043 28.4798 8.8462 28.6977 10.6191L28.7953 11.3629L28.0516 11.4004C27.383 11.4305 27.2928 11.453 27.1651 11.6183C26.9698 11.8587 26.9848 12.1967 27.2102 12.4146C27.3755 12.5874 27.4506 12.6024 28.0967 12.6024H28.7953L28.7352 13.1433C28.6225 14.2551 28.2319 15.5924 27.7586 16.5464C27.4656 17.1174 26.8195 18.1165 26.4965 18.4847L26.2486 18.7701L25.7453 18.2743C25.1593 17.7109 24.9039 17.6433 24.5808 17.9738C24.2503 18.2968 24.3179 18.5523 24.8889 19.1382L25.3772 19.6491L24.9264 20.0172C23.5892 21.099 21.5233 21.9479 19.7954 22.1282L19.2095 22.1883V21.4896C19.2095 20.8436 19.1944 20.7684 19.0216 20.6032C18.7812 20.3552 18.4357 20.3552 18.1953 20.6032C18.0225 20.7684 18.0075 20.8436 18.0075 21.4896V22.2033L17.6544 22.1657C16.6252 22.0756 15.2955 21.715 14.3339 21.2718C13.6728 20.9713 13.4775 20.9562 13.2371 21.2042C13.0117 21.422 12.9892 21.7526 13.1845 21.9854C13.3422 22.1808 14.4916 22.6841 15.3631 22.9395C16.52 23.2701 17.2788 23.3752 18.6085 23.3752C20.464 23.3752 21.8313 23.0672 23.4915 22.2859C24.7762 21.6774 25.7678 20.9788 26.7144 20.0322C31.1392 15.5849 31.0866 8.29028 26.6017 3.86545C24.9715 2.25028 22.883 1.18352 20.5617 0.770332C19.7579 0.627596 18.0751 0.567495 17.3313 0.657646Z" fill="#3D2300"/>
<path d="M7.37726 4.37632C7.25707 4.48901 7.18945 4.64677 7.18945 4.78951C7.18945 4.93224 7.25707 5.09001 7.37726 5.20269L7.55756 5.3905H11.0208H14.484L14.6643 5.20269C14.7845 5.09001 14.8521 4.93224 14.8521 4.78951C14.8521 4.64677 14.7845 4.48901 14.6643 4.37632L14.484 4.18851H11.0208H7.55756L7.37726 4.37632Z" fill="#3D2300"/>
<path d="M21.4184 8.33534L19.8183 9.92046L19.4276 9.80026C18.2557 9.41713 16.956 9.90544 16.4677 10.9121C16.1823 11.4906 16.1372 12.1817 16.34 12.7902L16.4903 13.2334L16.1973 13.5565C15.8442 13.9396 15.7991 14.2852 16.0771 14.5406C16.355 14.8035 16.6781 14.7585 17.0687 14.3979L17.4068 14.0824L17.7899 14.2101C18.9468 14.5782 20.2315 14.0974 20.7423 13.1132C21.0353 12.5273 21.0879 11.8361 20.8775 11.2126L20.7198 10.7619L22.2974 9.17673C23.6947 7.77191 23.8675 7.56907 23.8675 7.35872C23.8675 7.19345 23.7999 7.05071 23.6797 6.93051C23.5595 6.81032 23.4167 6.7427 23.2515 6.7427C23.0411 6.7427 22.8383 6.91549 21.4184 8.33534ZM19.2023 11.0098C19.6154 11.2126 19.7732 11.4906 19.7732 12.0014C19.7732 12.5123 19.6154 12.7902 19.2023 12.993C18.6764 13.2635 17.9327 13.1057 17.6021 12.655C17.4819 12.4972 17.4443 12.3244 17.4443 12.0014C17.4443 11.6784 17.4819 11.5056 17.6021 11.3478C17.8125 11.0624 18.2031 10.8745 18.6088 10.8745C18.7966 10.8745 19.0595 10.9346 19.2023 11.0098Z" fill="#3D2300"/>
<path d="M3.77228 7.98228C3.65208 8.09497 3.58447 8.25273 3.58447 8.39547C3.58447 8.5382 3.65208 8.69596 3.77228 8.80865L3.95258 8.99646H8.72298C12.1111 8.99646 13.546 8.97392 13.6812 8.91382C13.899 8.80865 14.0643 8.47059 13.9892 8.24522C13.9591 8.16258 13.869 8.01984 13.7788 7.94472C13.6286 7.80198 13.4934 7.79447 8.79059 7.79447H3.95258L3.77228 7.98228Z" fill="#3D2300"/>
<path d="M0.165838 11.5882C0.0456392 11.7009 -0.0219727 11.8587 -0.0219727 12.0014C-0.0219727 12.1442 0.0456392 12.3019 0.165838 12.4146L0.346137 12.6024H6.58897H12.8318L13.0121 12.4146C13.26 12.1742 13.26 11.8286 13.0121 11.5882L12.8318 11.4004H6.58897H0.346137L0.165838 11.5882Z" fill="#3D2300"/>
<path d="M3.77228 15.1942C3.65208 15.3069 3.58447 15.4646 3.58447 15.6074C3.58447 15.7501 3.65208 15.9079 3.77228 16.0206L3.95258 16.2084H8.72298C12.1111 16.2084 13.546 16.1858 13.6812 16.1257C13.899 16.0206 14.0643 15.6825 13.9892 15.4571C13.9591 15.3745 13.869 15.2318 13.7788 15.1566C13.6286 15.0139 13.4934 15.0064 8.79059 15.0064H3.95258L3.77228 15.1942Z" fill="#3D2300"/>
<path d="M7.37726 18.8002C7.25707 18.9128 7.18945 19.0706 7.18945 19.2133C7.18945 19.3561 7.25707 19.5138 7.37726 19.6265L7.55756 19.8143H11.0208H14.484L14.6643 19.6265C14.7845 19.5138 14.8521 19.3561 14.8521 19.2133C14.8521 19.0706 14.7845 18.9128 14.6643 18.8002L14.484 18.6123H11.0208H7.55756L7.37726 18.8002Z" fill="#3D2300"/>
</svg>
