<svg width="30" height="30" viewBox="0 0 30 30" fill="none" xmlns="http://www.w3.org/2000/svg">
<path d="M4.4822 0.111311C4.18923 0.298811 0.245869 4.2949 0.175556 4.47069C0.0935248 4.70506 0.0935248 28.8867 0.181415 29.1972C0.210712 29.3203 0.32204 29.5078 0.41579 29.6191C0.779072 30.0351 -0.023663 30.0058 11.1384 29.9883L21.1873 29.9707L21.4334 29.8066C21.5681 29.7187 21.7322 29.543 21.7966 29.414C21.908 29.1914 21.9138 29.0801 21.9138 25.9277C21.9138 22.3535 21.9197 22.4238 21.5623 22.2363C21.3455 22.125 21.0759 22.125 20.8591 22.2363C20.5017 22.418 20.5076 22.3828 20.5076 25.6055V28.5351H11.0447H1.58181V16.9922V5.4492H3.06423C3.89626 5.4492 4.63454 5.4199 4.75759 5.39061C5.05056 5.30858 5.32595 5.06834 5.45485 4.77537C5.5486 4.5703 5.56618 4.37108 5.56618 2.99998V1.46483H13.0369H20.5076V5.53123V9.59764L20.6541 9.77928C20.7361 9.87303 20.8943 9.98436 21.0056 10.0195C21.2752 10.1074 21.5681 10.0137 21.7674 9.77928L21.9138 9.59764V5.20897C21.9138 0.914045 21.9138 0.808577 21.7966 0.58592C21.7322 0.457014 21.5681 0.281233 21.4334 0.193342L21.1873 0.0292797L12.9256 0.0117016C4.88649 -1.71661e-05 4.65212 -1.71661e-05 4.4822 0.111311ZM4.10134 3.25194V3.98436H3.3572H2.6072L3.33962 3.25194C3.74392 2.84764 4.0779 2.51951 4.08376 2.51951C4.09548 2.51951 4.10134 2.84764 4.10134 3.25194Z" fill="#3D2300"/>
<path d="M27.123 7.1718C26.7891 7.28899 26.543 7.46477 26.1738 7.83977L25.834 8.18548L25.5879 8.09759C25.4238 8.03899 25.2656 8.02141 25.1074 8.05071C24.8906 8.09173 24.3516 8.61907 18.6445 14.3144C15.2168 17.7363 12.2988 20.6952 12.1582 20.8886C12.0234 21.082 11.8242 21.4101 11.7188 21.621C11.4844 22.0839 10.4297 25.2187 10.4297 25.4472C10.4297 25.664 10.5586 25.9101 10.7812 26.0917C11.1152 26.3788 11.2207 26.3613 12.8379 25.8339C13.6582 25.5702 14.5312 25.2656 14.7773 25.1659C15.7441 24.7558 15.709 24.7909 22.0664 18.4394L28.0488 12.4687L28.2188 12.8085C28.3535 13.0781 28.3828 13.2304 28.3887 13.5585C28.3887 14.3613 28.4766 14.2499 25.4824 17.2558C22.541 20.2148 22.6055 20.1327 22.8281 20.5956C23.0039 20.9648 23.4316 21.1347 23.7656 20.9589C23.8594 20.9062 25.1484 19.6464 26.6309 18.1523C28.9453 15.832 29.3555 15.3925 29.4961 15.0937C29.7656 14.5253 29.8477 14.1913 29.8477 13.5937C29.8535 12.6855 29.5371 11.9238 28.8516 11.1913L28.582 10.8984L28.9629 10.4882C29.4961 9.90813 29.6191 9.64446 29.6133 9.05266C29.6133 8.66595 29.584 8.53118 29.4609 8.28509C29.2383 7.86321 28.6348 7.31829 28.248 7.18938C27.8789 7.0722 27.4219 7.06634 27.123 7.1718ZM27.9902 8.74212C28.0957 8.84759 28.1836 8.98235 28.1836 9.05266C28.1836 9.12298 28.043 9.31634 27.8438 9.5097L27.5039 9.84368L27.1875 9.52141L26.8652 9.19329L27.1992 8.87688C27.5859 8.50188 27.7207 8.47845 27.9902 8.74212ZM25.8691 12.5976L24.7266 13.7402L23.8652 12.873L22.998 12.0116L24.1406 10.8691L25.2832 9.72649L26.1445 10.5878L27.0117 11.455L25.8691 12.5976ZM23.4551 15.0116C23.3379 15.1347 23.209 15.2343 23.1797 15.2343C23.1445 15.2343 22.7402 14.8593 22.2832 14.4023L21.4453 13.5702L21.6914 13.3183L21.9375 13.0663L22.8047 13.9277L23.6719 14.789L23.4551 15.0116ZM19.002 19.4648L15.8496 22.6171L14.9883 21.7558L14.1211 20.8886L17.2676 17.7421L20.4199 14.5898L21.2812 15.4511L22.1484 16.3183L19.002 19.4648ZM14.4434 23.7128C14.1738 23.8534 12.2988 24.5097 12.2695 24.4745C12.2344 24.4394 12.8379 22.6581 12.9902 22.3359L13.1426 22.0195L13.9219 22.7988L14.707 23.5839L14.4434 23.7128Z" fill="#3D2300"/>
<path d="M3.97852 7.59961C3.63281 7.81054 3.53906 8.25 3.75 8.60156C3.98438 8.98242 3.59766 8.96484 10.9746 8.96484C14.666 8.96484 17.7656 8.94726 17.8652 8.92968C17.9707 8.90625 18.1289 8.8125 18.2227 8.71875C18.5391 8.40234 18.5098 7.94531 18.1523 7.64648L17.9766 7.5H11.0566C4.75781 7.50586 4.11914 7.51172 3.97852 7.59961Z" fill="#3D2300"/>
<path d="M3.97818 11.5253C3.44498 11.8534 3.55044 12.662 4.1481 12.832C4.30044 12.8788 6.48599 12.8905 11.1735 12.8788L17.9821 12.8613L18.1461 12.7382C18.234 12.6679 18.3454 12.5155 18.3922 12.3925C18.5094 12.0937 18.3922 11.748 18.111 11.5605L17.9118 11.4257H11.0211C4.75748 11.4316 4.1188 11.4374 3.97818 11.5253Z" fill="#3D2300"/>
<path d="M4.07205 15.4102C3.84939 15.498 3.67947 15.7441 3.65017 16.0078C3.62088 16.3125 3.71463 16.5059 3.9783 16.6816L4.18338 16.8164L8.06228 16.8047C11.906 16.7871 11.947 16.7871 12.1111 16.6641C12.199 16.5938 12.3103 16.4414 12.3572 16.3184C12.4744 16.0195 12.3572 15.6738 12.076 15.4863L11.8767 15.3516L8.03299 15.3574C5.91775 15.3574 4.1365 15.3809 4.07205 15.4102Z" fill="#3D2300"/>
<path d="M3.98439 19.4121C3.51564 19.7227 3.50978 20.291 3.97853 20.6074L4.17775 20.7422H6.75001C9.57423 20.7422 9.59767 20.7422 9.80275 20.3965C9.85548 20.3027 9.90236 20.1152 9.90236 19.9863C9.90236 19.793 9.86134 19.6992 9.70314 19.5234L9.50392 19.3066L6.84376 19.2891L4.18361 19.2715L3.98439 19.4121Z" fill="#3D2300"/>
<path d="M4.7283 23.2851C4.5408 23.3613 4.34744 23.4609 4.28885 23.5019C4.04861 23.6836 3.7908 23.9472 3.71463 24.0937C3.46853 24.5625 3.81424 25.1367 4.34744 25.1367C4.53494 25.1367 4.65799 25.0722 5.09158 24.7558C5.22635 24.6562 5.36697 24.6094 5.53103 24.6094C5.75955 24.6094 5.80057 24.6387 6.4158 25.2773C7.06033 25.9453 7.30643 26.1211 7.79275 26.25C8.12674 26.3379 8.824 26.3379 9.14041 26.2441C9.80838 26.0449 9.90799 25.1836 9.29275 24.8789C9.09939 24.7851 9.03494 24.7793 8.73025 24.8379C8.23221 24.9375 7.97439 24.832 7.56424 24.3633C6.73807 23.4199 6.36307 23.1914 5.57205 23.1621C5.14432 23.1445 5.01541 23.1621 4.7283 23.2851Z" fill="#3D2300"/>
</svg>
