<svg width="30" height="28" viewBox="0 0 30 28" fill="none" xmlns="http://www.w3.org/2000/svg">
<path d="M23.75 5.25H21.25V4C21.25 3.00544 20.8549 2.05161 20.1517 1.34835C19.4484 0.645088 18.4946 0.25 17.5 0.25H3.75C2.75544 0.25 1.80161 0.645088 1.09835 1.34835C0.395088 2.05161 0 3.00544 0 4L0 22.75H2.55125C2.51909 22.9568 2.50196 23.1657 2.5 23.375C2.5 24.5353 2.96094 25.6481 3.78141 26.4686C4.60188 27.2891 5.71468 27.75 6.875 27.75C8.03532 27.75 9.14812 27.2891 9.96859 26.4686C10.7891 25.6481 11.25 24.5353 11.25 23.375C11.248 23.1657 11.2309 22.9568 11.1987 22.75H18.8013C18.7691 22.9568 18.752 23.1657 18.75 23.375C18.75 24.5353 19.2109 25.6481 20.0314 26.4686C20.8519 27.2891 21.9647 27.75 23.125 27.75C24.2853 27.75 25.3981 27.2891 26.2186 26.4686C27.0391 25.6481 27.5 24.5353 27.5 23.375C27.498 23.1657 27.4809 22.9568 27.4487 22.75H30V11.5C29.998 9.84301 29.3389 8.25445 28.1672 7.08277C26.9956 5.9111 25.407 5.25198 23.75 5.25V5.25ZM23.75 7.75C24.7446 7.75 25.6984 8.14509 26.4017 8.84835C27.1049 9.55161 27.5 10.5054 27.5 11.5V12.75H21.25V7.75H23.75ZM8.75 23.375C8.75 23.8723 8.55246 24.3492 8.20083 24.7008C7.84919 25.0525 7.37228 25.25 6.875 25.25C6.37772 25.25 5.90081 25.0525 5.54917 24.7008C5.19754 24.3492 5 23.8723 5 23.375C5.00077 23.1614 5.04015 22.9496 5.11625 22.75H8.63375C8.70985 22.9496 8.74923 23.1614 8.75 23.375V23.375ZM18.75 20.25H2.5V4C2.5 3.66848 2.6317 3.35054 2.86612 3.11612C3.10054 2.8817 3.41848 2.75 3.75 2.75H17.5C17.8315 2.75 18.1495 2.8817 18.3839 3.11612C18.6183 3.35054 18.75 3.66848 18.75 4V20.25ZM25 23.375C25 23.8723 24.8025 24.3492 24.4508 24.7008C24.0992 25.0525 23.6223 25.25 23.125 25.25C22.6277 25.25 22.1508 25.0525 21.7992 24.7008C21.4475 24.3492 21.25 23.8723 21.25 23.375C21.2505 23.1613 21.2899 22.9496 21.3663 22.75H24.8837C24.9601 22.9496 24.9995 23.1613 25 23.375V23.375ZM21.25 20.25V15.25H27.5V20.25H21.25Z" fill="#3D2300"/>
</svg>
