<svg width="30" height="30" viewBox="0 0 30 30" fill="none" xmlns="http://www.w3.org/2000/svg">
<path d="M28.5613 9.6012L17.3113 0.7962C16.6513 0.279215 15.8371 -0.00170898 14.9988 -0.00170898C14.1604 -0.00170898 13.3462 0.279215 12.6863 0.7962L1.43627 9.5987C0.987238 9.94898 0.624343 10.3974 0.375391 10.9096C0.126439 11.4218 -0.00196301 11.9842 2.26848e-05 12.5537V30H7.50002V20H22.5V30H30V12.5537C30.0017 11.9844 29.8729 11.4222 29.6235 10.9104C29.3741 10.3986 29.0107 9.95071 28.5613 9.6012ZM7.50002 17.4999V16.2499C7.50002 15.9184 7.63172 15.6005 7.86614 15.3661C8.10056 15.1316 8.4185 14.9999 8.75002 14.9999H21.25C21.5815 14.9999 21.8995 15.1316 22.1339 15.3661C22.3683 15.6005 22.5 15.9184 22.5 16.2499V17.4999H7.50002ZM27.5 27.5H25V16.2499C25 15.2554 24.6049 14.3016 23.9017 13.5983C23.1984 12.895 22.2446 12.4999 21.25 12.4999H8.75002C7.75546 12.4999 6.80163 12.895 6.09837 13.5983C5.39511 14.3016 5.00002 15.2554 5.00002 16.2499V27.5H2.50002V12.5537C2.49942 12.3637 2.54237 12.1762 2.62558 12.0054C2.70879 11.8347 2.83004 11.6853 2.98002 11.5687L14.23 2.7662C14.4499 2.59428 14.7209 2.50088 15 2.50088C15.2791 2.50088 15.5502 2.59428 15.77 2.7662L27.02 11.5712C27.17 11.6874 27.2914 11.8366 27.3746 12.0072C27.4578 12.1777 27.5007 12.3652 27.5 12.5549V27.5Z" fill="#3D2300"/>
</svg>
